<svg viewBox="0 0 900 520" xmlns="http://www.w3.org/2000/svg" role="img" aria-labelledby="title desc">
  <title id="title">2021 math q11</title>
  <desc id="desc">Помощен чертеж към примерна задача от НВО по математика.</desc>
  <rect width="900" height="520" fill="#262523"/>
  <defs>
    <marker id="arrow" markerWidth="10" markerHeight="10" refX="8" refY="3" orient="auto" markerUnits="strokeWidth"><path d="M0,0 L0,6 L8,3 z" fill="#d8d2c7"/></marker>
    <style>
      .line{stroke:#f0ede6;stroke-width:4;fill:none;stroke-linecap:round;stroke-linejoin:round}.thin{stroke:#d8d2c7;stroke-width:2.4;fill:none;stroke-linecap:round;stroke-linejoin:round}.dash{stroke:#d8d2c7;stroke-width:3;fill:none;stroke-dasharray:12 10;stroke-linecap:round;stroke-linejoin:round}.blue{stroke:#4a97f2;stroke-width:4;fill:none;stroke-linecap:round;stroke-linejoin:round}.green{stroke:#7db22f;stroke-width:4;fill:none;stroke-linecap:round;stroke-linejoin:round}.orange{stroke:#e6a84d;stroke-width:4;fill:none;stroke-linecap:round;stroke-linejoin:round}.violet{stroke:#8f7cf6;stroke-width:4;fill:none;stroke-linecap:round;stroke-linejoin:round}.fill-blue{fill:#4a97f2;fill-opacity:.18;stroke:#4a97f2;stroke-width:3}.fill-green{fill:#7db22f;fill-opacity:.16;stroke:#7db22f;stroke-width:3}.fill-orange{fill:#e6a84d;fill-opacity:.16;stroke:#e6a84d;stroke-width:3}.grid{stroke:#5c5a55;stroke-width:1.5;opacity:.8}.point{fill:#f0ede6}.point-blue{fill:#4a97f2}.point-green{fill:#7db22f}.point-orange{fill:#e6a84d}.label{fill:#f2efe8;font-family:Arial,sans-serif;font-weight:700;font-size:28px}.small{fill:#d8d2c7;font-family:Arial,sans-serif;font-weight:600;font-size:20px}.tiny{fill:#d8d2c7;font-family:Arial,sans-serif;font-weight:600;font-size:16px}.caption{fill:#f4f0e8;font-family:Arial,sans-serif;font-weight:700;font-size:24px}.muted{fill:#bdb7ad;font-family:Arial,sans-serif;font-size:18px}.sector1{fill:#4a97f2;fill-opacity:.65}.sector2{fill:#7db22f;fill-opacity:.62}.sector3{fill:#e6a84d;fill-opacity:.68}.sector4{fill:#8f7cf6;fill-opacity:.58}
    </style>
  </defs>

  <text class="caption" x="54" y="54">Правилна осмоъгълна пирамида</text>
  <g transform="translate(10 0)">
    <polygon class="fill-blue" points="260,360 340,430 455,448 570,430 650,360 610,300 455,270 300,300"/>
    <path class="line" d="M455 80 L260 360 L340 430 L455 448 L570 430 L650 360 L610 300 L455 270 L300 300 Z"/>
    <path class="line" d="M455 80 L340 430 M455 80 L455 448 M455 80 L570 430 M455 80 L260 360 M455 80 L650 360"/>
    <path class="dash" d="M455 80 L300 300 M455 80 L455 270 M455 80 L610 300 M260 360 L650 360 M300 300 L610 300"/>
    <circle class="point-orange" cx="455" cy="80" r="8"/><circle class="point" cx="260" cy="360" r="7"/><circle class="point" cx="340" cy="430" r="7"/><circle class="point" cx="455" cy="448" r="7"/><circle class="point" cx="570" cy="430" r="7"/><circle class="point" cx="650" cy="360" r="7"/>
    <text class="label" x="467" y="75">S</text><text class="small" x="520" y="248">18 cm²</text>
  </g>
  <text class="muted" x="285" y="492">8 равни околни стени</text>
</svg>
