<svg viewBox="0 0 900 520" xmlns="http://www.w3.org/2000/svg" role="img" aria-labelledby="title desc">
  <title id="title">2023 math q16</title>
  <desc id="desc">Помощен чертеж към примерна задача от НВО по математика.</desc>
  <rect width="900" height="520" fill="#262523"/>
  <defs>
    <style>
      .line{stroke:#f0ede6;stroke-width:4;fill:none;stroke-linecap:round;stroke-linejoin:round}
      .thin{stroke:#d8d2c7;stroke-width:2.4;fill:none;stroke-linecap:round;stroke-linejoin:round}
      .green{stroke:#7db22f;stroke-width:4;fill:none;stroke-linecap:round;stroke-linejoin:round}
      .orange{stroke:#e6a84d;stroke-width:4;fill:none;stroke-linecap:round;stroke-linejoin:round}
      .point{fill:#f0ede6}
      .point-green{fill:#7db22f}
      .label{fill:#f2efe8;font-family:Arial,sans-serif;font-weight:700;font-size:28px}
      .small{fill:#d8d2c7;font-family:Arial,sans-serif;font-weight:600;font-size:20px}
      .caption{fill:#f4f0e8;font-family:Arial,sans-serif;font-weight:700;font-size:24px}
    </style>
  </defs>

  <text class="caption" x="54" y="54">△ABC ≅ △PMT</text>

  <path class="line" d="M60 405 H815"/>
  <path class="line" d="M60 405 L190 115 L560 405"/>
  <path class="green" d="M325 405 L705 90 L815 405"/>

  <path class="orange" d="M190 115 m-15 55 a72 72 0 0 0 58 12"/>
  <path class="orange" d="M439 310 m-74 44 a84 84 0 0 1 -34 -61"/>

  <circle class="point" cx="60" cy="405" r="7"/>
  <circle class="point" cx="190" cy="115" r="8"/>
  <circle class="point" cx="560" cy="405" r="8"/>
  <circle class="point-green" cx="325" cy="405" r="7"/>
  <circle class="point-green" cx="705" cy="90" r="8"/>
  <circle class="point-green" cx="815" cy="405" r="7"/>
  <circle class="point" cx="439" cy="310" r="7"/>

  <text class="label" x="28" y="445">A</text>
  <text class="label" x="302" y="445">M</text>
  <text class="label" x="565" y="445">B</text>
  <text class="label" x="820" y="445">P</text>
  <text class="label" x="184" y="100">C</text>
  <text class="label" x="698" y="74">T</text>
  <text class="label" x="447" y="301">O</text>

  <text class="small" x="155" y="190">80°</text>
  <text class="small" x="310" y="330">70°</text>
</svg>
