<svg viewBox="0 0 900 520" xmlns="http://www.w3.org/2000/svg" role="img" aria-labelledby="title desc">
  <title id="title">2024 math q19</title>
  <desc id="desc">Помощен чертеж към примерна задача от НВО по математика.</desc>
  <rect width="900" height="520" fill="#262523"/>
  <defs>
    <marker id="arrow" markerWidth="10" markerHeight="10" refX="8" refY="3" orient="auto" markerUnits="strokeWidth"><path d="M0,0 L0,6 L8,3 z" fill="#d8d2c7"/></marker>
    <style>
      .line{stroke:#f0ede6;stroke-width:4;fill:none;stroke-linecap:round;stroke-linejoin:round}.thin{stroke:#d8d2c7;stroke-width:2.4;fill:none;stroke-linecap:round;stroke-linejoin:round}.dash{stroke:#d8d2c7;stroke-width:3;fill:none;stroke-dasharray:12 10;stroke-linecap:round;stroke-linejoin:round}.blue{stroke:#4a97f2;stroke-width:4;fill:none;stroke-linecap:round;stroke-linejoin:round}.green{stroke:#7db22f;stroke-width:4;fill:none;stroke-linecap:round;stroke-linejoin:round}.orange{stroke:#e6a84d;stroke-width:4;fill:none;stroke-linecap:round;stroke-linejoin:round}.violet{stroke:#8f7cf6;stroke-width:4;fill:none;stroke-linecap:round;stroke-linejoin:round}.fill-blue{fill:#4a97f2;fill-opacity:.18;stroke:#4a97f2;stroke-width:3}.fill-green{fill:#7db22f;fill-opacity:.16;stroke:#7db22f;stroke-width:3}.fill-orange{fill:#e6a84d;fill-opacity:.16;stroke:#e6a84d;stroke-width:3}.grid{stroke:#5c5a55;stroke-width:1.5;opacity:.8}.point{fill:#f0ede6}.point-blue{fill:#4a97f2}.point-green{fill:#7db22f}.point-orange{fill:#e6a84d}.label{fill:#f2efe8;font-family:Arial,sans-serif;font-weight:700;font-size:28px}.small{fill:#d8d2c7;font-family:Arial,sans-serif;font-weight:600;font-size:20px}.tiny{fill:#d8d2c7;font-family:Arial,sans-serif;font-weight:600;font-size:16px}.caption{fill:#f4f0e8;font-family:Arial,sans-serif;font-weight:700;font-size:24px}.muted{fill:#bdb7ad;font-family:Arial,sans-serif;font-size:18px}.sector1{fill:#4a97f2;fill-opacity:.65}.sector2{fill:#7db22f;fill-opacity:.62}.sector3{fill:#e6a84d;fill-opacity:.68}.sector4{fill:#8f7cf6;fill-opacity:.58}
    </style>
  </defs>

  <text class="caption" x="54" y="54">Диаграма за училищно тържество</text>
  <g transform="translate(455 280)">
    <path class="sector1" d="M0 0 L0 -135 A135 135 0 0 1 133 -23 Z"/>
    <path class="sector2" d="M0 0 L133 -23 A135 135 0 0 1 135 0 Z"/>
    <path class="sector3" d="M0 0 L135 0 A135 135 0 0 1 0 135 Z"/>
    <path class="sector4" d="M0 0 L0 135 A135 135 0 0 1 0 -135 Z"/>
    <circle cx="0" cy="0" r="135" fill="none" stroke="#f0ede6" stroke-width="3"/>
    <path class="line" d="M0 0 L0 -135 M0 0 L133 -23 M0 0 L135 0 M0 0 L0 135"/>
    <path class="thin" d="M-66 -88 A110 110 0 0 0 -66 88"/>
    <path class="blue" d="M92 -16 A94 94 0 0 1 94 0"/>
    <path class="thin" d="M18 0 V18 H0"/>
    <text class="small" x="-92" y="6">150°</text>
    <text class="small" x="42" y="-86">80°</text>
  </g>
  <text class="small" x="518" y="146">театрални</text><text class="small" x="604" y="258">спортни</text><text class="small" x="560" y="424">танцови</text><text class="small" x="216" y="286">музикални</text>
  <text class="muted" x="326" y="468">Общо време: 90 минути</text>
</svg>
